<?xml version="1.0" encoding="utf-8"?>
<svg version="1.1" xmlns:xlink="http://www.w3.org/1999/xlink" width="38px" height="38px" xmlns="http://www.w3.org/2000/svg">
  <defs>
    <filter x="484px" y="7px" width="38px" height="38px" filterUnits="userSpaceOnUse" id="filter71">
      <feOffset dx="0" dy="0" in="SourceAlpha" result="shadowOffsetInner" />
      <feGaussianBlur stdDeviation="5" in="shadowOffsetInner" result="shadowGaussian" />
      <feComposite in2="shadowGaussian" operator="atop" in="SourceAlpha" result="shadowComposite" />
      <feColorMatrix type="matrix" values="0 0 0 0 0  0 0 0 0 0  0 0 0 0 0  0 0 0 0.313725490196078 0  " in="shadowComposite" />
    </filter>
    <g id="widget72">
      <path d="M 16.173 18  L 18 16.173  L 12.933 11.106  C 13.725 9.963  14.184 8.577  14.184 7.092  C 14.184 3.177  11.007 0  7.092 0  C 3.177 0  0 3.177  0 7.092  C 0 11.007  3.177 14.184  7.092 14.184  C 8.586 14.184  9.972 13.716  11.106 12.933  L 16.173 18  Z M 7.092 11.61  C 4.599 11.61  2.583 9.585  2.583 7.092  C 2.583 4.608  4.608 2.583  7.092 2.583  C 9.576 2.583  11.61 4.608  11.61 7.092  C 11.61 9.585  9.585 11.61  7.092 11.61  Z " fill-rule="nonzero" fill="#f67917" stroke="none" transform="matrix(1 0 0 1 494 17 )" />
    </g>
  </defs>
  <g transform="matrix(1 0 0 1 -484 -7 )">
    <use xlink:href="#widget72" filter="url(#filter71)" />
    <use xlink:href="#widget72" />
  </g>
</svg>